<svg xmlns="http://www.w3.org/2000/svg" xmlns:xlink="http://www.w3.org/1999/xlink" width="100" zoomAndPan="magnify" viewBox="0 0 75 74.999997" height="100" preserveAspectRatio="xMidYMid meet" version="1.0"><path fill="#38b6ff" d="M 56.503906 20.890625 L 55.417969 21.863281 C 53.484375 23.597656 53.324219 26.5625 55.054688 28.492188 L 55.914062 29.453125 C 57.648438 31.382812 60.617188 31.542969 62.550781 29.8125 L 63.636719 28.839844 C 65.566406 27.109375 65.730469 24.140625 63.996094 22.210938 L 63.136719 21.253906 C 61.40625 19.324219 58.433594 19.164062 56.503906 20.890625 Z M 56.503906 20.890625 " fill-opacity="1" fill-rule="nonzero"/><path fill="#38b6ff" d="M 73.621094 52.613281 C 71.652344 50.421875 68.273438 50.234375 66.078125 52.203125 L 65.554688 52.675781 L 63.324219 50.132812 L 72.339844 42.050781 C 73.644531 40.882812 74.3125 39.261719 74.3125 37.636719 C 74.3125 36.226562 73.8125 34.808594 72.796875 33.679688 C 70.609375 31.238281 66.855469 31.035156 64.414062 33.222656 L 43.242188 52.191406 L 41.140625 49.792969 L 53.121094 39.058594 C 54.425781 37.886719 55.09375 36.269531 55.09375 34.640625 C 55.09375 33.234375 54.59375 31.816406 53.578125 30.683594 C 51.503906 28.375 48.027344 28.070312 45.59375 29.902344 L 42.402344 26.265625 L 58.625 11.734375 C 59.929688 10.5625 60.597656 8.941406 60.597656 7.316406 C 60.597656 5.90625 60.097656 4.492188 59.082031 3.359375 C 56.890625 0.917969 53.140625 0.714844 50.699219 2.902344 L 25.28125 25.675781 L 22.808594 22.855469 L 33.710938 13.085938 C 35.296875 11.667969 35.429688 9.230469 34.007812 7.644531 L 32.425781 5.878906 C 31.003906 4.292969 28.5625 4.160156 26.976562 5.582031 L 9.441406 21.292969 C 7.851562 22.714844 7.71875 25.152344 9.140625 26.738281 L 10.726562 28.503906 C 12.148438 30.089844 14.585938 30.222656 16.175781 28.800781 L 17.949219 27.210938 L 20.417969 30.03125 L 11.367188 38.140625 C 10.058594 39.308594 9.394531 40.929688 9.394531 42.554688 C 9.394531 43.964844 9.894531 45.382812 10.910156 46.515625 C 13.101562 48.953125 16.851562 49.15625 19.292969 46.972656 L 37.539062 30.621094 L 40.714844 34.242188 L 6.308594 65.070312 C 5 66.242188 4.332031 67.859375 4.332031 69.488281 C 4.332031 70.898438 4.835938 72.3125 5.851562 73.445312 C 8.039062 75.882812 11.789062 76.085938 14.230469 73.898438 L 36.277344 54.148438 L 38.378906 56.546875 L 34.394531 60.117188 C 33.085938 61.289062 32.421875 62.910156 32.421875 64.535156 C 32.421875 65.945312 32.921875 67.359375 33.9375 68.492188 C 36.125 70.929688 39.878906 71.136719 42.320312 68.949219 L 58.460938 54.484375 L 60.691406 57.03125 L 54.898438 62.21875 C 53.71875 63.273438 53.121094 64.730469 53.121094 66.195312 C 53.121094 67.464844 53.570312 68.738281 54.484375 69.757812 C 56.457031 71.953125 59.832031 72.136719 62.027344 70.167969 L 73.210938 60.152344 C 74.386719 59.097656 74.984375 57.640625 74.984375 56.175781 C 74.984375 54.910156 74.535156 53.632812 73.621094 52.613281 Z M 73.621094 52.613281 " fill-opacity="1" fill-rule="nonzero"/><path fill="#e8e1d8" d="M 52.183594 19.019531 L 51.097656 19.992188 C 49.167969 21.722656 49.007812 24.691406 50.738281 26.621094 L 51.597656 27.578125 C 53.328125 29.507812 56.300781 29.671875 58.230469 27.941406 L 59.316406 26.96875 C 61.25 25.234375 61.410156 22.269531 59.679688 20.339844 L 58.820312 19.378906 C 57.085938 17.449219 54.117188 17.289062 52.183594 19.019531 Z M 52.183594 19.019531 " fill-opacity="1" fill-rule="nonzero"/><path fill="#e8e1d8" d="M 69.300781 50.742188 C 67.332031 48.546875 63.957031 48.363281 61.757812 50.332031 L 61.234375 50.800781 L 59.003906 48.257812 L 68.019531 40.179688 C 69.328125 39.007812 69.996094 37.386719 69.996094 35.761719 C 69.996094 34.351562 69.492188 32.9375 68.476562 31.804688 C 66.289062 29.367188 62.539062 29.160156 60.097656 31.347656 L 38.921875 50.316406 L 36.820312 47.917969 L 48.800781 37.183594 C 50.109375 36.011719 50.773438 34.394531 50.773438 32.769531 C 50.773438 31.359375 50.273438 29.941406 49.257812 28.8125 C 47.1875 26.5 43.710938 26.195312 41.273438 28.027344 L 38.085938 24.390625 L 54.304688 9.859375 C 55.613281 8.6875 56.277344 7.066406 56.277344 5.441406 C 56.277344 4.03125 55.777344 2.617188 54.761719 1.484375 C 52.574219 -0.957031 48.820312 -1.160156 46.378906 1.027344 L 20.960938 23.800781 L 18.492188 20.980469 L 29.394531 11.210938 C 30.980469 9.792969 31.113281 7.355469 29.691406 5.769531 L 28.105469 4.003906 C 26.683594 2.417969 24.246094 2.285156 22.660156 3.707031 L 5.121094 19.421875 C 3.535156 20.84375 3.402344 23.277344 4.824219 24.863281 L 6.40625 26.628906 C 7.832031 28.214844 10.269531 28.347656 11.855469 26.925781 L 13.628906 25.335938 L 16.097656 28.15625 L 7.046875 36.265625 C 5.742188 37.4375 5.074219 39.054688 5.074219 40.683594 C 5.074219 42.089844 5.578125 43.507812 6.59375 44.640625 C 8.78125 47.078125 12.53125 47.28125 14.972656 45.097656 L 33.21875 28.75 L 36.394531 32.367188 L 1.988281 63.195312 C 0.679688 64.367188 0.015625 65.984375 0.015625 67.613281 C 0.015625 69.023438 0.515625 70.4375 1.53125 71.570312 C 3.71875 74.007812 7.472656 74.210938 9.910156 72.023438 L 31.957031 52.273438 L 34.0625 54.671875 L 30.078125 58.242188 C 28.769531 59.414062 28.101562 61.035156 28.101562 62.660156 C 28.101562 64.070312 28.601562 65.488281 29.617188 66.617188 C 31.808594 69.058594 35.5625 69.261719 38 67.074219 L 54.140625 52.613281 L 56.371094 55.15625 L 50.578125 60.347656 C 49.402344 61.402344 48.804688 62.859375 48.804688 64.324219 C 48.804688 65.59375 49.253906 66.867188 50.167969 67.886719 C 52.136719 70.078125 55.515625 70.265625 57.710938 68.296875 L 68.890625 58.28125 C 70.066406 57.226562 70.667969 55.769531 70.667969 54.304688 C 70.667969 53.035156 70.21875 51.761719 69.300781 50.742188 Z M 69.300781 50.742188 " fill-opacity="1" fill-rule="nonzero"/></svg>